<svg width="216" height="216" viewBox="0 0 216 216" fill="none" xmlns="http://www.w3.org/2000/svg">
<ellipse opacity="0.1" cx="108" cy="108" rx="86.1762" ry="86.1761" fill="#D8D8D8"/>
<path d="M179.14 36.0576C166.589 23.5066 150.957 14.4784 133.813 9.87926C116.67 5.2801 98.6183 5.27189 81.4706 9.85544C64.323 14.439 48.6829 23.453 36.1205 35.9925C23.5582 48.5319 14.5158 64.1556 9.901 81.2949C5.28624 98.4341 5.26159 116.486 9.82952 133.638C14.3975 150.789 23.3972 166.438 35.9253 179.012C48.4533 191.585 64.0687 200.642 81.2038 205.272C98.3389 209.903 116.391 209.944 133.546 205.391L107.598 107.6L179.14 36.0576Z" fill="#467E52"/>
<path d="M108 216C130.593 216 152.616 208.915 170.971 195.742C189.326 182.569 203.087 163.971 210.319 142.567C217.55 121.163 217.886 98.0302 211.281 76.4247C204.676 54.8192 191.461 35.8292 173.498 22.1277L108 108L108 216Z" fill="black"/>
<ellipse cx="108" cy="108" rx="61.5544" ry="61.5544" fill="white"/>
<path d="M78.4558 102.909H80.8528L85.0204 113.085H85.1738L89.3414 102.909H91.7385V116H89.8592V106.527H89.7377L85.877 115.981H84.3173L80.4565 106.521H80.335V116H78.4558V102.909ZM98.5923 116.198C97.6719 116.198 96.8686 115.987 96.1825 115.565C95.4964 115.143 94.9638 114.553 94.5845 113.795C94.2053 113.036 94.0156 112.15 94.0156 111.136C94.0156 110.117 94.2053 109.227 94.5845 108.464C94.9638 107.701 95.4964 107.109 96.1825 106.687C96.8686 106.265 97.6719 106.054 98.5923 106.054C99.5128 106.054 100.316 106.265 101.002 106.687C101.688 107.109 102.221 107.701 102.6 108.464C102.979 109.227 103.169 110.117 103.169 111.136C103.169 112.15 102.979 113.036 102.6 113.795C102.221 114.553 101.688 115.143 101.002 115.565C100.316 115.987 99.5128 116.198 98.5923 116.198ZM98.5987 114.594C99.1953 114.594 99.6896 114.436 100.082 114.121C100.474 113.805 100.763 113.386 100.951 112.862C101.143 112.337 101.239 111.76 101.239 111.129C101.239 110.503 101.143 109.928 100.951 109.403C100.763 108.875 100.474 108.451 100.082 108.131C99.6896 107.812 99.1953 107.652 98.5987 107.652C97.9979 107.652 97.4993 107.812 97.103 108.131C96.7109 108.451 96.419 108.875 96.2273 109.403C96.0398 109.928 95.946 110.503 95.946 111.129C95.946 111.76 96.0398 112.337 96.2273 112.862C96.419 113.386 96.7109 113.805 97.103 114.121C97.4993 114.436 97.9979 114.594 98.5987 114.594ZM108.978 116.192C108.185 116.192 107.478 115.989 106.856 115.585C106.238 115.175 105.752 114.594 105.398 113.839C105.049 113.081 104.874 112.171 104.874 111.11C104.874 110.049 105.051 109.141 105.405 108.387C105.763 107.633 106.253 107.055 106.875 106.655C107.497 106.254 108.202 106.054 108.991 106.054C109.6 106.054 110.09 106.156 110.461 106.361C110.836 106.561 111.126 106.795 111.33 107.064C111.539 107.332 111.701 107.569 111.816 107.773H111.931V102.909H113.842V116H111.976V114.472H111.816C111.701 114.681 111.535 114.92 111.317 115.188C111.104 115.457 110.81 115.691 110.435 115.891C110.06 116.092 109.574 116.192 108.978 116.192ZM109.4 114.562C109.949 114.562 110.414 114.417 110.793 114.127C111.177 113.833 111.466 113.426 111.662 112.906C111.863 112.386 111.963 111.781 111.963 111.091C111.963 110.409 111.865 109.812 111.669 109.301C111.473 108.79 111.185 108.391 110.806 108.106C110.427 107.82 109.958 107.678 109.4 107.678C108.824 107.678 108.345 107.827 107.961 108.125C107.578 108.423 107.288 108.83 107.092 109.346C106.9 109.862 106.805 110.443 106.805 111.091C106.805 111.747 106.903 112.337 107.099 112.862C107.295 113.386 107.584 113.801 107.968 114.108C108.356 114.411 108.833 114.562 109.4 114.562ZM120.801 116.198C119.834 116.198 119.001 115.991 118.302 115.578C117.608 115.161 117.071 114.575 116.691 113.82C116.316 113.062 116.129 112.173 116.129 111.155C116.129 110.149 116.316 109.263 116.691 108.496C117.071 107.729 117.599 107.13 118.277 106.7C118.958 106.269 119.755 106.054 120.667 106.054C121.221 106.054 121.758 106.146 122.278 106.329C122.798 106.512 123.265 106.8 123.678 107.192C124.091 107.584 124.417 108.093 124.656 108.719C124.895 109.342 125.014 110.098 125.014 110.989V111.666H117.209V110.234H123.141C123.141 109.732 123.039 109.286 122.834 108.898C122.63 108.506 122.342 108.197 121.971 107.972C121.605 107.746 121.174 107.633 120.68 107.633C120.143 107.633 119.674 107.765 119.274 108.029C118.877 108.289 118.571 108.63 118.353 109.052C118.14 109.469 118.034 109.923 118.034 110.413V111.532C118.034 112.188 118.149 112.746 118.379 113.207C118.613 113.667 118.939 114.018 119.357 114.261C119.775 114.5 120.262 114.619 120.821 114.619C121.183 114.619 121.513 114.568 121.811 114.466C122.11 114.359 122.368 114.202 122.585 113.993C122.802 113.784 122.968 113.526 123.083 113.219L124.892 113.545C124.748 114.078 124.488 114.545 124.113 114.945C123.742 115.342 123.275 115.651 122.713 115.872C122.154 116.089 121.517 116.198 120.801 116.198ZM129.046 102.909V116H127.134V102.909H129.046ZM138.974 108.579L137.242 108.886C137.169 108.664 137.054 108.453 136.897 108.253C136.743 108.053 136.534 107.888 136.27 107.761C136.006 107.633 135.676 107.569 135.279 107.569C134.738 107.569 134.287 107.69 133.924 107.933C133.562 108.172 133.381 108.481 133.381 108.86C133.381 109.188 133.502 109.452 133.745 109.653C133.988 109.853 134.38 110.017 134.922 110.145L136.481 110.503C137.385 110.712 138.058 111.033 138.501 111.468C138.944 111.903 139.166 112.467 139.166 113.162C139.166 113.75 138.995 114.274 138.654 114.734C138.318 115.19 137.847 115.548 137.242 115.808C136.641 116.068 135.944 116.198 135.152 116.198C134.052 116.198 133.155 115.964 132.461 115.495C131.766 115.022 131.34 114.351 131.182 113.482L133.029 113.2C133.145 113.682 133.381 114.046 133.739 114.293C134.097 114.536 134.564 114.658 135.139 114.658C135.765 114.658 136.266 114.528 136.641 114.268C137.016 114.004 137.203 113.682 137.203 113.303C137.203 112.996 137.088 112.738 136.858 112.529C136.632 112.32 136.285 112.163 135.816 112.056L134.154 111.692C133.238 111.483 132.561 111.151 132.122 110.695C131.687 110.239 131.47 109.661 131.47 108.962C131.47 108.383 131.632 107.876 131.956 107.441C132.279 107.006 132.727 106.668 133.298 106.425C133.869 106.178 134.523 106.054 135.26 106.054C136.321 106.054 137.157 106.284 137.766 106.744C138.375 107.2 138.778 107.812 138.974 108.579Z" fill="black"/>
</svg>
