<svg width="804" height="333" viewBox="0 0 804 333" fill="none" xmlns="http://www.w3.org/2000/svg">
<path d="M16.858 75.3636V87H15.4489V76.8409H15.3807L12.5398 78.7273V77.2955L15.4489 75.3636H16.858ZM24 87.1591C23.1439 87.1591 22.4148 86.9261 21.8125 86.4602C21.2102 85.9905 20.75 85.3106 20.4318 84.4205C20.1136 83.5265 19.9545 82.447 19.9545 81.1818C19.9545 79.9242 20.1136 78.8504 20.4318 77.9602C20.7538 77.0663 21.2159 76.3845 21.8182 75.9148C22.4242 75.4413 23.1515 75.2045 24 75.2045C24.8485 75.2045 25.5739 75.4413 26.1761 75.9148C26.7822 76.3845 27.2443 77.0663 27.5625 77.9602C27.8845 78.8504 28.0455 79.9242 28.0455 81.1818C28.0455 82.447 27.8864 83.5265 27.5682 84.4205C27.25 85.3106 26.7898 85.9905 26.1875 86.4602C25.5852 86.9261 24.8561 87.1591 24 87.1591ZM24 85.9091C24.8485 85.9091 25.5076 85.5 25.9773 84.6818C26.447 83.8636 26.6818 82.697 26.6818 81.1818C26.6818 80.1742 26.5739 79.3163 26.358 78.608C26.1458 77.8996 25.839 77.3598 25.4375 76.9886C25.0398 76.6174 24.5606 76.4318 24 76.4318C23.1591 76.4318 22.5019 76.8466 22.0284 77.6761C21.5549 78.5019 21.3182 79.6705 21.3182 81.1818C21.3182 82.1894 21.4242 83.0455 21.6364 83.75C21.8485 84.4545 22.1534 84.9905 22.5511 85.358C22.9527 85.7254 23.4356 85.9091 24 85.9091ZM34 87.1591C33.1439 87.1591 32.4148 86.9261 31.8125 86.4602C31.2102 85.9905 30.75 85.3106 30.4318 84.4205C30.1136 83.5265 29.9545 82.447 29.9545 81.1818C29.9545 79.9242 30.1136 78.8504 30.4318 77.9602C30.7538 77.0663 31.2159 76.3845 31.8182 75.9148C32.4242 75.4413 33.1515 75.2045 34 75.2045C34.8485 75.2045 35.5739 75.4413 36.1761 75.9148C36.7822 76.3845 37.2443 77.0663 37.5625 77.9602C37.8845 78.8504 38.0455 79.9242 38.0455 81.1818C38.0455 82.447 37.8864 83.5265 37.5682 84.4205C37.25 85.3106 36.7898 85.9905 36.1875 86.4602C35.5852 86.9261 34.8561 87.1591 34 87.1591ZM34 85.9091C34.8485 85.9091 35.5076 85.5 35.9773 84.6818C36.447 83.8636 36.6818 82.697 36.6818 81.1818C36.6818 80.1742 36.5739 79.3163 36.358 78.608C36.1458 77.8996 35.839 77.3598 35.4375 76.9886C35.0398 76.6174 34.5606 76.4318 34 76.4318C33.1591 76.4318 32.5019 76.8466 32.0284 77.6761C31.5549 78.5019 31.3182 79.6705 31.3182 81.1818C31.3182 82.1894 31.4242 83.0455 31.6364 83.75C31.8485 84.4545 32.1534 84.9905 32.5511 85.358C32.9527 85.7254 33.4356 85.9091 34 85.9091Z" fill="black"/>
<line x1="71" y1="80.5" x2="800" y2="80.5" stroke="#AFAFAF" stroke-dasharray="4 4"/>
<path d="M24.1065 167.159C23.4399 167.159 22.8395 167.027 22.3054 166.761C21.7713 166.496 21.3433 166.133 21.0213 165.67C20.6993 165.208 20.5232 164.682 20.4929 164.091H21.8565C21.9096 164.617 22.1482 165.053 22.5724 165.398C23.0005 165.739 23.5118 165.909 24.1065 165.909C24.5838 165.909 25.008 165.797 25.3793 165.574C25.7543 165.35 26.0478 165.044 26.2599 164.653C26.4759 164.259 26.5838 163.814 26.5838 163.318C26.5838 162.811 26.4721 162.358 26.2486 161.96C26.0289 161.559 25.7259 161.242 25.3395 161.011C24.9531 160.78 24.5118 160.663 24.0156 160.659C23.6596 160.655 23.294 160.71 22.919 160.824C22.544 160.934 22.2353 161.076 21.9929 161.25L20.6747 161.091L21.3793 155.364H27.4247V156.614H22.5611L22.152 160.045H22.2202C22.4588 159.856 22.758 159.699 23.1179 159.574C23.4777 159.449 23.8527 159.386 24.2429 159.386C24.955 159.386 25.5895 159.557 26.1463 159.898C26.7069 160.235 27.1463 160.697 27.4645 161.284C27.7865 161.871 27.9474 162.542 27.9474 163.295C27.9474 164.038 27.7808 164.701 27.4474 165.284C27.1179 165.864 26.6634 166.322 26.0838 166.659C25.5043 166.992 24.8452 167.159 24.1065 167.159ZM34 167.159C33.1439 167.159 32.4148 166.926 31.8125 166.46C31.2102 165.991 30.75 165.311 30.4318 164.42C30.1136 163.527 29.9545 162.447 29.9545 161.182C29.9545 159.924 30.1136 158.85 30.4318 157.96C30.7538 157.066 31.2159 156.384 31.8182 155.915C32.4242 155.441 33.1515 155.205 34 155.205C34.8485 155.205 35.5739 155.441 36.1761 155.915C36.7822 156.384 37.2443 157.066 37.5625 157.96C37.8845 158.85 38.0455 159.924 38.0455 161.182C38.0455 162.447 37.8864 163.527 37.5682 164.42C37.25 165.311 36.7898 165.991 36.1875 166.46C35.5852 166.926 34.8561 167.159 34 167.159ZM34 165.909C34.8485 165.909 35.5076 165.5 35.9773 164.682C36.447 163.864 36.6818 162.697 36.6818 161.182C36.6818 160.174 36.5739 159.316 36.358 158.608C36.1458 157.9 35.839 157.36 35.4375 156.989C35.0398 156.617 34.5606 156.432 34 156.432C33.1591 156.432 32.5019 156.847 32.0284 157.676C31.5549 158.502 31.3182 159.67 31.3182 161.182C31.3182 162.189 31.4242 163.045 31.6364 163.75C31.8485 164.455 32.1534 164.991 32.5511 165.358C32.9527 165.725 33.4356 165.909 34 165.909Z" fill="black"/>
<line x1="71" y1="160.5" x2="800" y2="160.5" stroke="#AFAFAF" stroke-dasharray="4 4"/>
<path d="M20.7827 247V245.977L24.6236 241.773C25.0743 241.28 25.4455 240.852 25.7372 240.489C26.0289 240.121 26.2448 239.777 26.3849 239.455C26.5289 239.129 26.6009 238.788 26.6009 238.432C26.6009 238.023 26.5024 237.669 26.3054 237.369C26.1122 237.07 25.8471 236.839 25.5099 236.676C25.1728 236.513 24.794 236.432 24.3736 236.432C23.9266 236.432 23.5365 236.525 23.2031 236.71C22.8736 236.892 22.6179 237.148 22.4361 237.477C22.258 237.807 22.169 238.193 22.169 238.636H20.8281C20.8281 237.955 20.9853 237.356 21.2997 236.841C21.6141 236.326 22.0421 235.924 22.5838 235.636C23.1293 235.348 23.741 235.205 24.419 235.205C25.1009 235.205 25.705 235.348 26.2315 235.636C26.758 235.924 27.1709 236.312 27.4702 236.801C27.7694 237.29 27.919 237.833 27.919 238.432C27.919 238.86 27.8414 239.278 27.6861 239.688C27.5346 240.093 27.2694 240.545 26.8906 241.045C26.5156 241.542 25.9948 242.148 25.3281 242.864L22.7145 245.659V245.75H28.1236V247H20.7827ZM34.1065 247.159C33.4399 247.159 32.8395 247.027 32.3054 246.761C31.7713 246.496 31.3433 246.133 31.0213 245.67C30.6993 245.208 30.5232 244.682 30.4929 244.091H31.8565C31.9096 244.617 32.1482 245.053 32.5724 245.398C33.0005 245.739 33.5118 245.909 34.1065 245.909C34.5838 245.909 35.008 245.797 35.3793 245.574C35.7543 245.35 36.0478 245.044 36.2599 244.653C36.4759 244.259 36.5838 243.814 36.5838 243.318C36.5838 242.811 36.4721 242.358 36.2486 241.96C36.0289 241.559 35.7259 241.242 35.3395 241.011C34.9531 240.78 34.5118 240.663 34.0156 240.659C33.6596 240.655 33.294 240.71 32.919 240.824C32.544 240.934 32.2353 241.076 31.9929 241.25L30.6747 241.091L31.3793 235.364H37.4247V236.614H32.5611L32.152 240.045H32.2202C32.4588 239.856 32.758 239.699 33.1179 239.574C33.4777 239.449 33.8527 239.386 34.2429 239.386C34.955 239.386 35.5895 239.557 36.1463 239.898C36.7069 240.235 37.1463 240.697 37.4645 241.284C37.7865 241.871 37.9474 242.542 37.9474 243.295C37.9474 244.038 37.7808 244.701 37.4474 245.284C37.1179 245.864 36.6634 246.322 36.0838 246.659C35.5043 246.992 34.8452 247.159 34.1065 247.159Z" fill="black"/>
<line x1="71" y1="240.5" x2="800" y2="240.5" stroke="#AFAFAF" stroke-dasharray="4 4"/>
<path d="M34 327.159C33.1439 327.159 32.4148 326.926 31.8125 326.46C31.2102 325.991 30.75 325.311 30.4318 324.42C30.1136 323.527 29.9545 322.447 29.9545 321.182C29.9545 319.924 30.1136 318.85 30.4318 317.96C30.7538 317.066 31.2159 316.384 31.8182 315.915C32.4242 315.441 33.1515 315.205 34 315.205C34.8485 315.205 35.5739 315.441 36.1761 315.915C36.7822 316.384 37.2443 317.066 37.5625 317.96C37.8845 318.85 38.0455 319.924 38.0455 321.182C38.0455 322.447 37.8864 323.527 37.5682 324.42C37.25 325.311 36.7898 325.991 36.1875 326.46C35.5852 326.926 34.8561 327.159 34 327.159ZM34 325.909C34.8485 325.909 35.5076 325.5 35.9773 324.682C36.447 323.864 36.6818 322.697 36.6818 321.182C36.6818 320.174 36.5739 319.316 36.358 318.608C36.1458 317.9 35.839 317.36 35.4375 316.989C35.0398 316.617 34.5606 316.432 34 316.432C33.1591 316.432 32.5019 316.847 32.0284 317.676C31.5549 318.502 31.3182 319.67 31.3182 321.182C31.3182 322.189 31.4242 323.045 31.6364 323.75C31.8485 324.455 32.1534 324.991 32.5511 325.358C32.9527 325.725 33.4356 325.909 34 325.909Z" fill="black"/>
<line x1="71" y1="320.5" x2="800" y2="320.5" stroke="#AFAFAF" stroke-dasharray="4 4"/>
<path d="M733.213 175.557L803 121.446V329H70V248.144V167.289L135.883 114.357L204.064 129.688L269.373 98.7615L334.973 154.356L402.805 172.015L467.282 191.847L535.549 132.009L603.003 110.096L670.578 76.7461L733.213 175.557Z" fill="url(#paint0_linear_1001_6098)"/>
<path d="M803 121.949L733.184 175.668L670.578 76.7461L603.003 110.471L535.549 132.63L467.282 191.847L402.805 173.085L334.973 155.228L269.373 99.0089L204.064 130.283L135.883 114.78L70 168.306" stroke="#589E67" stroke-width="2"/>
<g filter="url(#filter0_d_1001_6098)">
<rect x="236.5" y="20" width="134" height="99" rx="8" fill="white"/>
<path d="M270.619 41.8182H272.483L275.724 49.733H275.844L279.085 41.8182H280.95V52H279.488V44.6321H279.393L276.391 51.9851H275.178L272.175 44.6271H272.08V52H270.619V41.8182ZM285.286 52.169C284.802 52.169 284.365 52.0795 283.974 51.9006C283.582 51.7183 283.273 51.4548 283.044 51.1101C282.818 50.7654 282.706 50.3428 282.706 49.8423C282.706 49.4115 282.789 49.0568 282.954 48.7784C283.12 48.5 283.344 48.2796 283.626 48.1172C283.907 47.9548 284.222 47.8321 284.57 47.7493C284.918 47.6664 285.273 47.6035 285.634 47.5604C286.091 47.5073 286.463 47.4643 286.748 47.4311C287.033 47.3946 287.24 47.3366 287.369 47.2571C287.498 47.1776 287.563 47.0483 287.563 46.8693V46.8345C287.563 46.4003 287.44 46.0639 287.195 45.8253C286.953 45.5866 286.592 45.4673 286.111 45.4673C285.611 45.4673 285.216 45.5784 284.928 45.8004C284.643 46.0192 284.446 46.2628 284.336 46.5312L282.939 46.2131C283.105 45.7491 283.347 45.3745 283.665 45.0895C283.987 44.8011 284.356 44.5923 284.774 44.4631C285.192 44.3305 285.631 44.2642 286.091 44.2642C286.396 44.2642 286.72 44.3007 287.061 44.3736C287.406 44.4432 287.727 44.5724 288.025 44.7614C288.327 44.9503 288.574 45.2204 288.766 45.5717C288.958 45.9197 289.055 46.3722 289.055 46.929V52H287.603V50.956H287.543C287.447 51.1482 287.303 51.3371 287.111 51.5227C286.918 51.7083 286.671 51.8625 286.37 51.9851C286.068 52.1077 285.707 52.169 285.286 52.169ZM285.609 50.9759C286.02 50.9759 286.372 50.8946 286.663 50.7322C286.958 50.5698 287.182 50.3577 287.334 50.0959C287.49 49.8307 287.568 49.5473 287.568 49.2457V48.2614C287.515 48.3144 287.412 48.3641 287.26 48.4105C287.111 48.4536 286.94 48.4917 286.748 48.5249C286.555 48.5547 286.368 48.5829 286.186 48.6094C286.004 48.6326 285.851 48.6525 285.729 48.669C285.44 48.7055 285.177 48.7668 284.938 48.853C284.703 48.9392 284.514 49.0634 284.371 49.2259C284.232 49.3849 284.162 49.5971 284.162 49.8622C284.162 50.2301 284.298 50.5085 284.57 50.6974C284.842 50.883 285.188 50.9759 285.609 50.9759ZM291.701 54.8636C291.479 54.8636 291.276 54.8454 291.094 54.8089C290.912 54.7758 290.776 54.7393 290.686 54.6996L291.044 53.4815C291.316 53.5545 291.558 53.5859 291.77 53.576C291.982 53.5661 292.17 53.4865 292.332 53.3374C292.498 53.1882 292.644 52.9446 292.77 52.6065L292.953 52.0994L290.159 44.3636H291.75L293.684 50.2898H293.764L295.698 44.3636H297.294L294.147 53.0192C294.001 53.4169 293.815 53.7533 293.59 54.0284C293.364 54.3068 293.096 54.5156 292.784 54.6548C292.473 54.794 292.112 54.8636 291.701 54.8636ZM302.376 52V50.8864L305.821 47.3168C306.189 46.929 306.492 46.5893 306.731 46.2976C306.973 46.0026 307.154 45.7225 307.273 45.4574C307.392 45.1922 307.452 44.9105 307.452 44.6122C307.452 44.2741 307.372 43.9825 307.213 43.7372C307.054 43.4886 306.837 43.2981 306.562 43.1655C306.287 43.0296 305.977 42.9616 305.632 42.9616C305.268 42.9616 304.95 43.0362 304.678 43.1854C304.406 43.3345 304.197 43.545 304.051 43.8168C303.905 44.0885 303.833 44.4067 303.833 44.7713H302.366C302.366 44.1515 302.508 43.6096 302.794 43.1456C303.079 42.6816 303.47 42.322 303.967 42.0668C304.464 41.8082 305.029 41.679 305.662 41.679C306.302 41.679 306.865 41.8066 307.352 42.0618C307.843 42.3137 308.226 42.6584 308.501 43.0959C308.776 43.5301 308.914 44.0206 308.914 44.5675C308.914 44.9453 308.842 45.3149 308.7 45.6761C308.561 46.0374 308.317 46.4401 307.969 46.8842C307.621 47.325 307.137 47.8603 306.517 48.4901L304.494 50.608V50.6825H309.078V52H302.376ZM314.507 52.169C313.721 52.1657 313.05 51.9586 312.493 51.5476C311.936 51.1366 311.51 50.5384 311.215 49.7528C310.92 48.9673 310.773 48.0211 310.773 46.9141C310.773 45.8104 310.92 44.8674 311.215 44.0852C311.514 43.303 311.941 42.7064 312.498 42.2955C313.058 41.8845 313.728 41.679 314.507 41.679C315.285 41.679 315.953 41.8861 316.51 42.3004C317.067 42.7114 317.493 43.308 317.788 44.0902C318.086 44.8691 318.235 45.8104 318.235 46.9141C318.235 48.0244 318.088 48.9723 317.793 49.7578C317.498 50.54 317.072 51.1383 316.515 51.5526C315.958 51.9635 315.289 52.169 314.507 52.169ZM314.507 50.8416C315.196 50.8416 315.735 50.5052 316.122 49.8324C316.513 49.1596 316.709 48.1868 316.709 46.9141C316.709 46.0689 316.619 45.3546 316.441 44.7713C316.265 44.1847 316.011 43.7405 315.68 43.4389C315.352 43.134 314.961 42.9815 314.507 42.9815C313.82 42.9815 313.282 43.3196 312.891 43.9957C312.5 44.6719 312.302 45.6446 312.299 46.9141C312.299 47.7625 312.387 48.4801 312.563 49.0668C312.742 49.6501 312.995 50.0926 313.323 50.3942C313.651 50.6925 314.046 50.8416 314.507 50.8416ZM319.999 52V50.8864L323.444 47.3168C323.812 46.929 324.115 46.5893 324.354 46.2976C324.596 46.0026 324.777 45.7225 324.896 45.4574C325.015 45.1922 325.075 44.9105 325.075 44.6122C325.075 44.2741 324.995 43.9825 324.836 43.7372C324.677 43.4886 324.46 43.2981 324.185 43.1655C323.91 43.0296 323.6 42.9616 323.255 42.9616C322.891 42.9616 322.573 43.0362 322.301 43.1854C322.029 43.3345 321.82 43.545 321.674 43.8168C321.529 44.0885 321.456 44.4067 321.456 44.7713H319.989C319.989 44.1515 320.132 43.6096 320.417 43.1456C320.702 42.6816 321.093 42.322 321.59 42.0668C322.087 41.8082 322.652 41.679 323.285 41.679C323.925 41.679 324.488 41.8066 324.975 42.0618C325.466 42.3137 325.849 42.6584 326.124 43.0959C326.399 43.5301 326.537 44.0206 326.537 44.5675C326.537 44.9453 326.465 45.3149 326.323 45.6761C326.184 46.0374 325.94 46.4401 325.592 46.8842C325.244 47.325 324.76 47.8603 324.14 48.4901L322.117 50.608V50.6825H326.701V52H319.999ZM332.13 52.1392C331.447 52.1392 330.837 52.0215 330.3 51.7862C329.766 51.5509 329.344 51.2244 329.032 50.8068C328.724 50.3859 328.558 49.8987 328.535 49.3452H330.096C330.116 49.6468 330.217 49.9086 330.4 50.1307C330.585 50.3494 330.827 50.5185 331.125 50.6378C331.424 50.7571 331.755 50.8168 332.12 50.8168C332.521 50.8168 332.875 50.7472 333.184 50.608C333.495 50.4687 333.739 50.2749 333.914 50.0263C334.09 49.7744 334.178 49.4844 334.178 49.1562C334.178 48.8149 334.09 48.5149 333.914 48.2564C333.742 47.9946 333.489 47.7891 333.154 47.6399C332.822 47.4908 332.421 47.4162 331.951 47.4162H331.091V46.1634H331.951C332.328 46.1634 332.66 46.0954 332.945 45.9595C333.233 45.8236 333.459 45.6347 333.621 45.3928C333.783 45.1475 333.865 44.8608 333.865 44.5327C333.865 44.2178 333.793 43.9444 333.651 43.7124C333.512 43.477 333.313 43.2931 333.054 43.1605C332.799 43.0279 332.498 42.9616 332.15 42.9616C331.818 42.9616 331.508 43.023 331.22 43.1456C330.935 43.2649 330.703 43.4373 330.524 43.6626C330.345 43.8847 330.249 44.1515 330.235 44.4631H328.749C328.766 43.9129 328.928 43.429 329.236 43.0114C329.548 42.5937 329.959 42.2673 330.469 42.032C330.98 41.7966 331.546 41.679 332.169 41.679C332.822 41.679 333.386 41.8066 333.86 42.0618C334.337 42.3137 334.705 42.6501 334.963 43.071C335.225 43.492 335.355 43.9527 335.351 44.4531C335.355 45.0232 335.195 45.5071 334.874 45.9048C334.556 46.3026 334.132 46.5694 333.601 46.7053V46.7848C334.277 46.8875 334.801 47.156 335.172 47.5902C335.547 48.0244 335.732 48.563 335.729 49.206C335.732 49.7661 335.577 50.2682 335.262 50.7124C334.95 51.1565 334.524 51.5062 333.984 51.7614C333.444 52.0133 332.826 52.1392 332.13 52.1392Z" fill="#727272"/>
<rect x="253" y="65.5" width="101" height="37" rx="3.5" fill="#F9F9F9"/>
<rect x="253" y="65.5" width="101" height="37" rx="3.5" stroke="#E4E4E4"/>
<path d="M272.066 81.7642L271.718 82.9922H265.2L265.548 81.7642H272.066ZM268.894 89.5L265.334 85.1797L265.324 84.2102H267.089C267.53 84.2102 267.903 84.1423 268.208 84.0064C268.513 83.8705 268.745 83.6733 268.904 83.4148C269.063 83.1529 269.143 82.8348 269.143 82.4602C269.143 81.9034 268.977 81.4609 268.645 81.1328C268.314 80.8047 267.795 80.6406 267.089 80.6406H265.2L265.563 79.3182H267.089C267.911 79.3182 268.589 79.4491 269.123 79.7109C269.656 79.9728 270.054 80.3357 270.316 80.7997C270.578 81.2637 270.709 81.799 270.709 82.4055C270.709 82.9458 270.601 83.4347 270.385 83.8722C270.17 84.3097 269.827 84.666 269.356 84.9411C268.886 85.2161 268.268 85.3769 267.502 85.4233L267.457 85.4332L270.709 89.4155V89.5H268.894ZM272.071 79.3182L271.718 80.5561L266.508 80.5263L266.861 79.3182H272.071ZM277.003 89.6392C276.32 89.6392 275.71 89.5215 275.173 89.2862C274.64 89.0509 274.217 88.7244 273.905 88.3068C273.597 87.8859 273.431 87.3987 273.408 86.8452H274.969C274.989 87.1468 275.09 87.4086 275.273 87.6307C275.458 87.8494 275.7 88.0185 275.998 88.1378C276.297 88.2571 276.628 88.3168 276.993 88.3168C277.394 88.3168 277.748 88.2472 278.057 88.108C278.368 87.9687 278.612 87.7749 278.787 87.5263C278.963 87.2744 279.051 86.9844 279.051 86.6562C279.051 86.3149 278.963 86.0149 278.787 85.7564C278.615 85.4946 278.362 85.2891 278.027 85.1399C277.695 84.9908 277.294 84.9162 276.824 84.9162H275.964V83.6634H276.824C277.202 83.6634 277.533 83.5954 277.818 83.4595C278.106 83.3236 278.332 83.1347 278.494 82.8928C278.657 82.6475 278.738 82.3608 278.738 82.0327C278.738 81.7178 278.666 81.4444 278.524 81.2124C278.385 80.977 278.186 80.7931 277.927 80.6605C277.672 80.5279 277.371 80.4616 277.023 80.4616C276.691 80.4616 276.381 80.523 276.093 80.6456C275.808 80.7649 275.576 80.9373 275.397 81.1626C275.218 81.3847 275.122 81.6515 275.108 81.9631H273.622C273.639 81.4129 273.801 80.929 274.109 80.5114C274.421 80.0937 274.832 79.7673 275.342 79.532C275.853 79.2966 276.419 79.179 277.042 79.179C277.695 79.179 278.259 79.3066 278.733 79.5618C279.21 79.8137 279.578 80.1501 279.836 80.571C280.098 80.992 280.228 81.4527 280.224 81.9531C280.228 82.5232 280.068 83.0071 279.747 83.4048C279.429 83.8026 279.005 84.0694 278.474 84.2053V84.2848C279.15 84.3875 279.674 84.656 280.045 85.0902C280.42 85.5244 280.605 86.063 280.602 86.706C280.605 87.2661 280.45 87.7682 280.135 88.2124C279.823 88.6565 279.397 89.0062 278.857 89.2614C278.317 89.5133 277.699 89.6392 277.003 89.6392ZM284.134 88.108L284.06 88.6499C284.01 89.0476 283.926 89.4619 283.806 89.8928C283.69 90.3269 283.569 90.7296 283.443 91.1009C283.321 91.4721 283.22 91.767 283.14 91.9858H282.086C282.129 91.7803 282.189 91.5019 282.265 91.1506C282.341 90.8026 282.416 90.4131 282.489 89.9822C282.562 89.5514 282.616 89.1122 282.653 88.6648L282.703 88.108H284.134ZM289.411 89.6392C288.787 89.6392 288.227 89.5199 287.73 89.2812C287.236 89.0393 286.842 88.7079 286.547 88.2869C286.252 87.866 286.094 87.3854 286.075 86.8452H287.566C287.603 87.2827 287.796 87.6423 288.148 87.924C288.499 88.2057 288.92 88.3466 289.411 88.3466C289.802 88.3466 290.148 88.2571 290.45 88.0781C290.754 87.8958 290.993 87.6456 291.165 87.3274C291.341 87.0092 291.429 86.6463 291.429 86.2386C291.429 85.8243 291.339 85.4548 291.161 85.13C290.982 84.8052 290.735 84.55 290.42 84.3643C290.108 84.1787 289.75 84.0843 289.346 84.081C289.038 84.081 288.728 84.134 288.416 84.2401C288.105 84.3461 287.853 84.4853 287.661 84.6577L286.254 84.4489L286.825 79.3182H292.423V80.6357H288.103L287.78 83.4844H287.839C288.038 83.2921 288.302 83.1314 288.63 83.0021C288.961 82.8729 289.316 82.8082 289.694 82.8082C290.314 82.8082 290.866 82.9557 291.349 83.2507C291.837 83.5457 292.219 83.9484 292.498 84.4588C292.78 84.9659 292.919 85.5492 292.915 86.2088C292.919 86.8684 292.77 87.4567 292.468 87.9737C292.17 88.4908 291.755 88.8984 291.225 89.1967C290.698 89.4917 290.093 89.6392 289.411 89.6392ZM298.276 89.669C297.491 89.6657 296.819 89.4586 296.263 89.0476C295.706 88.6366 295.28 88.0384 294.985 87.2528C294.69 86.4673 294.542 85.5211 294.542 84.4141C294.542 83.3104 294.69 82.3674 294.985 81.5852C295.283 80.803 295.711 80.2064 296.268 79.7955C296.828 79.3845 297.497 79.179 298.276 79.179C299.055 79.179 299.723 79.3861 300.28 79.8004C300.836 80.2114 301.262 80.808 301.557 81.5902C301.856 82.3691 302.005 83.3104 302.005 84.4141C302.005 85.5244 301.857 86.4723 301.562 87.2578C301.267 88.04 300.841 88.6383 300.285 89.0526C299.728 89.4635 299.058 89.669 298.276 89.669ZM298.276 88.3416C298.965 88.3416 299.504 88.0052 299.892 87.3324C300.283 86.6596 300.479 85.6868 300.479 84.4141C300.479 83.5689 300.389 82.8546 300.21 82.2713C300.034 81.6847 299.781 81.2405 299.449 80.9389C299.121 80.634 298.73 80.4815 298.276 80.4815C297.59 80.4815 297.051 80.8196 296.66 81.4957C296.269 82.1719 296.072 83.1446 296.069 84.4141C296.069 85.2625 296.157 85.9801 296.332 86.5668C296.511 87.1501 296.765 87.5926 297.093 87.8942C297.421 88.1925 297.815 88.3416 298.276 88.3416ZM307.313 89.669C306.528 89.6657 305.857 89.4586 305.3 89.0476C304.743 88.6366 304.317 88.0384 304.022 87.2528C303.727 86.4673 303.58 85.5211 303.58 84.4141C303.58 83.3104 303.727 82.3674 304.022 81.5852C304.32 80.803 304.748 80.2064 305.305 79.7955C305.865 79.3845 306.534 79.179 307.313 79.179C308.092 79.179 308.76 79.3861 309.317 79.8004C309.874 80.2114 310.299 80.808 310.594 81.5902C310.893 82.3691 311.042 83.3104 311.042 84.4141C311.042 85.5244 310.894 86.4723 310.599 87.2578C310.304 88.04 309.879 88.6383 309.322 89.0526C308.765 89.4635 308.095 89.669 307.313 89.669ZM307.313 88.3416C308.003 88.3416 308.541 88.0052 308.929 87.3324C309.32 86.6596 309.516 85.6868 309.516 84.4141C309.516 83.5689 309.426 82.8546 309.247 82.2713C309.071 81.6847 308.818 81.2405 308.487 80.9389C308.158 80.634 307.767 80.4815 307.313 80.4815C306.627 80.4815 306.089 80.8196 305.697 81.4957C305.306 82.1719 305.109 83.1446 305.106 84.4141C305.106 85.2625 305.194 85.9801 305.369 86.5668C305.548 87.1501 305.802 87.5926 306.13 87.8942C306.458 88.1925 306.853 88.3416 307.313 88.3416ZM314.39 88.108L314.316 88.6499C314.266 89.0476 314.181 89.4619 314.062 89.8928C313.946 90.3269 313.825 90.7296 313.699 91.1009C313.577 91.4721 313.475 91.767 313.396 91.9858H312.342C312.385 91.7803 312.445 91.5019 312.521 91.1506C312.597 90.8026 312.672 90.4131 312.745 89.9822C312.818 89.5514 312.872 89.1122 312.909 88.6648L312.958 88.108H314.39ZM319.645 89.669C318.86 89.6657 318.189 89.4586 317.632 89.0476C317.075 88.6366 316.649 88.0384 316.354 87.2528C316.059 86.4673 315.912 85.5211 315.912 84.4141C315.912 83.3104 316.059 82.3674 316.354 81.5852C316.652 80.803 317.08 80.2064 317.637 79.7955C318.197 79.3845 318.866 79.179 319.645 79.179C320.424 79.179 321.092 79.3861 321.649 79.8004C322.206 80.2114 322.632 80.808 322.926 81.5902C323.225 82.3691 323.374 83.3104 323.374 84.4141C323.374 85.5244 323.226 86.4723 322.931 87.2578C322.636 88.04 322.211 88.6383 321.654 89.0526C321.097 89.4635 320.427 89.669 319.645 89.669ZM319.645 88.3416C320.335 88.3416 320.873 88.0052 321.261 87.3324C321.652 86.6596 321.848 85.6868 321.848 84.4141C321.848 83.5689 321.758 82.8546 321.579 82.2713C321.404 81.6847 321.15 81.2405 320.819 80.9389C320.49 80.634 320.099 80.4815 319.645 80.4815C318.959 80.4815 318.421 80.8196 318.029 81.4957C317.638 82.1719 317.441 83.1446 317.438 84.4141C317.438 85.2625 317.526 85.9801 317.701 86.5668C317.88 87.1501 318.134 87.5926 318.462 87.8942C318.79 88.1925 319.185 88.3416 319.645 88.3416ZM328.682 89.669C327.897 89.6657 327.226 89.4586 326.669 89.0476C326.112 88.6366 325.686 88.0384 325.391 87.2528C325.096 86.4673 324.949 85.5211 324.949 84.4141C324.949 83.3104 325.096 82.3674 325.391 81.5852C325.689 80.803 326.117 80.2064 326.674 79.7955C327.234 79.3845 327.903 79.179 328.682 79.179C329.461 79.179 330.129 79.3861 330.686 79.8004C331.243 80.2114 331.669 80.808 331.964 81.5902C332.262 82.3691 332.411 83.3104 332.411 84.4141C332.411 85.5244 332.264 86.4723 331.969 87.2578C331.674 88.04 331.248 88.6383 330.691 89.0526C330.134 89.4635 329.465 89.669 328.682 89.669ZM328.682 88.3416C329.372 88.3416 329.91 88.0052 330.298 87.3324C330.689 86.6596 330.885 85.6868 330.885 84.4141C330.885 83.5689 330.795 82.8546 330.616 82.2713C330.441 81.6847 330.187 81.2405 329.856 80.9389C329.528 80.634 329.136 80.4815 328.682 80.4815C327.996 80.4815 327.458 80.8196 327.067 81.4957C326.675 82.1719 326.478 83.1446 326.475 84.4141C326.475 85.2625 326.563 85.9801 326.738 86.5668C326.917 87.1501 327.171 87.5926 327.499 87.8942C327.827 88.1925 328.222 88.3416 328.682 88.3416ZM337.719 89.669C336.934 89.6657 336.263 89.4586 335.706 89.0476C335.149 88.6366 334.723 88.0384 334.428 87.2528C334.133 86.4673 333.986 85.5211 333.986 84.4141C333.986 83.3104 334.133 82.3674 334.428 81.5852C334.727 80.803 335.154 80.2064 335.711 79.7955C336.271 79.3845 336.941 79.179 337.719 79.179C338.498 79.179 339.166 79.3861 339.723 79.8004C340.28 80.2114 340.706 80.808 341.001 81.5902C341.299 82.3691 341.448 83.3104 341.448 84.4141C341.448 85.5244 341.301 86.4723 341.006 87.2578C340.711 88.04 340.285 88.6383 339.728 89.0526C339.171 89.4635 338.502 89.669 337.719 89.669ZM337.719 88.3416C338.409 88.3416 338.947 88.0052 339.335 87.3324C339.726 86.6596 339.922 85.6868 339.922 84.4141C339.922 83.5689 339.832 82.8546 339.653 82.2713C339.478 81.6847 339.224 81.2405 338.893 80.9389C338.565 80.634 338.174 80.4815 337.719 80.4815C337.033 80.4815 336.495 80.8196 336.104 81.4957C335.713 82.1719 335.515 83.1446 335.512 84.4141C335.512 85.2625 335.6 85.9801 335.776 86.5668C335.955 87.1501 336.208 87.5926 336.536 87.8942C336.864 88.1925 337.259 88.3416 337.719 88.3416Z" fill="#727272"/>
<path d="M304.288 123.713C303.858 124.096 303.142 124.096 302.712 123.713L295.808 117.583C295.139 116.989 295.632 116 296.596 116L310.404 116C311.368 116 311.861 116.989 311.192 117.583L304.288 123.713Z" fill="white"/>
</g>
<g filter="url(#filter1_d_1001_6098)">
<circle cx="303.5" cy="139" r="8" fill="white"/>
</g>
<circle cx="303.5" cy="139" r="3" fill="black"/>
<line x1="303" y1="333" x2="303" y2="159" stroke="black" stroke-dasharray="4 4"/>
<defs>
<filter id="filter0_d_1001_6098" x="196.5" y="0" width="214" height="184" filterUnits="userSpaceOnUse" color-interpolation-filters="sRGB">
<feFlood flood-opacity="0" result="BackgroundImageFix"/>
<feColorMatrix in="SourceAlpha" type="matrix" values="0 0 0 0 0 0 0 0 0 0 0 0 0 0 0 0 0 0 127 0" result="hardAlpha"/>
<feOffset dy="20"/>
<feGaussianBlur stdDeviation="20"/>
<feComposite in2="hardAlpha" operator="out"/>
<feColorMatrix type="matrix" values="0 0 0 0 0.7625 0 0 0 0 0.7625 0 0 0 0 0.7625 0 0 0 0.5 0"/>
<feBlend mode="normal" in2="BackgroundImageFix" result="effect1_dropShadow_1001_6098"/>
<feBlend mode="normal" in="SourceGraphic" in2="effect1_dropShadow_1001_6098" result="shape"/>
</filter>
<filter id="filter1_d_1001_6098" x="285.5" y="125" width="36" height="36" filterUnits="userSpaceOnUse" color-interpolation-filters="sRGB">
<feFlood flood-opacity="0" result="BackgroundImageFix"/>
<feColorMatrix in="SourceAlpha" type="matrix" values="0 0 0 0 0 0 0 0 0 0 0 0 0 0 0 0 0 0 127 0" result="hardAlpha"/>
<feOffset dy="4"/>
<feGaussianBlur stdDeviation="5"/>
<feColorMatrix type="matrix" values="0 0 0 0 0 0 0 0 0 0 0 0 0 0 0 0 0 0 0.25 0"/>
<feBlend mode="normal" in2="BackgroundImageFix" result="effect1_dropShadow_1001_6098"/>
<feBlend mode="normal" in="SourceGraphic" in2="effect1_dropShadow_1001_6098" result="shape"/>
</filter>
<linearGradient id="paint0_linear_1001_6098" x1="436.5" y1="68.9002" x2="436.5" y2="324.554" gradientUnits="userSpaceOnUse">
<stop stop-color="#467E52" stop-opacity="0.08"/>
<stop offset="1" stop-color="#467E52" stop-opacity="0"/>
</linearGradient>
</defs>
</svg>
